<?xml version="1.0" encoding="UTF-8"?>
<svg version="1.1" xmlns="http://www.w3.org/2000/svg" width="1920" height="1920">
<path d="M0 0 C836.36521909 0 836.36521909 0 873.25 3.75 C874.49399567 3.87405212 874.49399567 3.87405212 875.76312256 4.00061035 C932.32429613 9.69425218 987.42985349 21.52603926 1041.06951904 40.32415771 C1042.83816314 40.94334252 1044.60868791 41.55714852 1046.37939453 42.17041016 C1102.15982672 61.62373581 1157.47388204 91.7191413 1202.109375 130.5078125 C1204.77418199 132.80530826 1207.49413717 135.00096212 1210.25 137.1875 C1225.11297309 149.30287836 1239.74545405 163.12429096 1252.12890625 177.79296875 C1253.65425033 179.59217419 1255.2045763 181.35597298 1256.77734375 183.11328125 C1265.82274248 193.27987106 1274.00403117 203.99535725 1282 215 C1282.59989746 215.82161621 1283.19979492 216.64323242 1283.81787109 217.48974609 C1293.05283478 230.19570405 1301.22870281 243.3562512 1309 257 C1309.43763672 257.75958008 1309.87527344 258.51916016 1310.32617188 259.30175781 C1347.94943206 324.65823241 1368.68285915 397.31156191 1377 472 C1377.0835675 472.73365784 1377.16713501 473.46731567 1377.25323486 474.22320557 C1382.67817944 522.26027959 1382.46956243 572.98148677 1377 621 C1376.91514343 621.76201721 1376.83028687 622.52403442 1376.74285889 623.30914307 C1369.51272064 687.9304971 1352.03412546 749.76357867 1323 808 C1322.57219238 808.85964355 1322.14438477 809.71928711 1321.70361328 810.60498047 C1305.60948928 842.68470006 1284.54956184 872.93141798 1260.3359375 899.41796875 C1259.07075909 900.81643519 1257.811671 902.22103655 1256.58862305 903.65649414 C1251.558129 909.54123737 1246.13879006 915.01350968 1240.6574707 920.47290039 C1239.06541034 922.05959946 1237.4787701 923.65157742 1235.89257812 925.24414062 C1230.43433909 930.70621457 1224.89769779 936.00964033 1219 941 C1218.03578125 941.845625 1217.0715625 942.69125 1216.078125 943.5625 C1206.42946281 951.87847405 1196.27345829 959.47643591 1186 967 C1185.2673291 967.53802246 1184.5346582 968.07604492 1183.77978516 968.63037109 C1166.70197274 981.11076824 1148.63826333 992.02163716 1130 1002 C1128.66582031 1002.71736328 1128.66582031 1002.71736328 1127.3046875 1003.44921875 C1114.09963126 1010.52465522 1100.74390886 1017.03878652 1087 1023 C1087 1026.34963763 1087.58386191 1027.36480201 1089.24609375 1030.19921875 C1089.74496094 1031.06224609 1090.24382812 1031.92527344 1090.7578125 1032.81445312 C1091.31210938 1033.76255859 1091.86640625 1034.71066406 1092.4375 1035.6875 C1098.00248969 1045.35464651 1103.30363467 1055.13164366 1108.5 1065 C1114.01804132 1075.468176 1119.66421413 1085.83946105 1125.5390625 1096.11328125 C1129.24586845 1102.61186297 1132.76259667 1109.18881759 1136.20849609 1115.82861328 C1139.35755447 1121.86190288 1142.68439055 1127.7799281 1146.0625 1133.6875 C1151.39842201 1143.02856251 1156.48265877 1152.4857782 1161.5 1162 C1166.37439639 1171.24227254 1171.30384934 1180.43297953 1176.5 1189.5 C1181.69615593 1198.56702967 1186.62541271 1207.75782242 1191.5 1217 C1196.88390595 1227.2074696 1202.38159046 1237.3241655 1208.1171875 1247.33984375 C1212.93100094 1255.78492093 1217.48424879 1264.35939074 1222.03204346 1272.94934082 C1226.38293201 1281.16180748 1230.81843414 1289.30904328 1235.4375 1297.375 C1241.0416285 1307.16466808 1246.33510101 1317.10234508 1251.59619141 1327.0786438 C1256.75289333 1336.85085351 1262.05362856 1346.5204614 1267.5390625 1356.11328125 C1271.24586845 1362.61186297 1274.76259667 1369.18881759 1278.20849609 1375.82861328 C1281.35755447 1381.86190288 1284.68439055 1387.7799281 1288.0625 1393.6875 C1293.39842201 1403.02856251 1298.48265877 1412.4857782 1303.5 1422 C1308.37439639 1431.24227254 1313.30384934 1440.43297953 1318.5 1449.5 C1323.69615593 1458.56702967 1328.62541271 1467.75782242 1333.5 1477 C1338.88390595 1487.2074696 1344.38159046 1497.3241655 1350.1171875 1507.33984375 C1354.93100094 1515.78492093 1359.48424879 1524.35939074 1364.03204346 1532.94934082 C1368.38293201 1541.16180748 1372.81843414 1549.30904328 1377.4375 1557.375 C1383.04373277 1567.16834397 1388.33842597 1577.11008518 1393.60223389 1587.08972168 C1398.61900392 1596.59474056 1403.76982614 1606.00082984 1409.1105957 1615.32885742 C1414.34309485 1624.50995169 1419.28669055 1633.83878852 1424.23461914 1643.17504883 C1428.48123034 1651.18331453 1432.79677706 1659.14736255 1437.25854492 1667.03833008 C1440 1671.90316891 1440 1671.90316891 1440 1673 C1271.04 1673 1102.08 1673 928 1673 C922.39 1662.44 916.78 1651.88 911 1641 C906.00453237 1631.66420804 901.00622148 1622.33001874 896 1613 C887.75055141 1597.62562829 879.5267493 1582.23852344 871.35015869 1566.82531738 C866.59699731 1557.86707606 861.81745765 1548.92389244 857 1540 C851.81511983 1530.39549151 846.67743563 1520.76686182 841.5625 1511.125 C833.74803962 1496.39523171 825.88375079 1481.69282628 818 1467 C809.75055141 1451.62562829 801.5267493 1436.23852344 793.35015869 1420.82531738 C788.0406526 1410.81853809 782.69009996 1400.83485971 777.30834961 1390.86669922 C772.2994729 1381.57927326 767.35046067 1372.26067215 762.40673828 1362.93847656 C757.6351193 1353.94227598 752.83788717 1344.96080877 748 1336 C742.81507383 1326.39551661 737.67743544 1316.76686146 732.5625 1307.125 C724.74803962 1292.39523171 716.88375079 1277.69282628 709 1263 C706.54092693 1258.41706298 704.08247506 1253.83379412 701.625 1249.25 C700.70763062 1247.53901123 700.70763062 1247.53901123 699.77172852 1245.79345703 C696.40149368 1239.50182603 693.04294516 1233.20419873 689.69921875 1226.8984375 C689.15680794 1225.87555885 689.15680794 1225.87555885 688.60343933 1224.83201599 C687.14231848 1222.07635609 685.68126491 1219.32066054 684.22042847 1216.56484985 C679.29495458 1207.27649246 674.30558431 1198.02686026 669.24536133 1188.81103516 C665.21869068 1181.4549768 661.34542363 1174.02372212 657.4855957 1166.57910156 C653.72704135 1159.34779136 649.84906731 1152.18936167 645.92407227 1145.04736328 C640.76873414 1135.63657598 635.76957401 1126.14438212 630.76586914 1116.6524353 C625.61938668 1106.89198161 620.42269187 1097.16675768 614.99584961 1087.55810547 C612 1082.20781843 612 1082.20781843 612 1080 C566.46 1080 520.92 1080 474 1080 C474 1275.69 474 1471.38 474 1673 C317.58 1673 161.16 1673 0 1673 C0 1120.91 0 568.82 0 0 Z M474 290 C474 456.65 474 623.3 474 795 C633.31421297 801.10931986 633.31421297 801.10931986 785 757 C785.63534668 756.6709668 786.27069336 756.34193359 786.92529297 756.00292969 C804.90767777 746.66201713 820.74805187 734.3581158 835 720 C835.50466797 719.49259277 836.00933594 718.98518555 836.52929688 718.46240234 C869.85949937 684.51704511 887.08827287 637.48937317 893 591 C893.10441406 590.2172168 893.20882813 589.43443359 893.31640625 588.62792969 C902.25299929 518.63404436 890.73031852 440.9225417 847 384 C803.28551086 327.76458753 733.49904456 303.29066498 665.125 293.8125 C663.48204956 293.5801062 663.48204956 293.5801062 661.8059082 293.34301758 C600.35820531 285.29227724 533.33000407 290 474 290 Z " fill="#A93DA9" transform="translate(290,123)"/>
<path d="M0 0 C39.6 0 79.2 0 120 0 C120 552.09 120 1104.18 120 1673 C80.4 1673 40.8 1673 0 1673 C0 1120.91 0 568.82 0 0 Z " fill="#E94244" transform="translate(290,123)"/>
<path d="M0 0 C69.95323163 -0.43798982 69.95323163 -0.43798982 99 2 C100.60253734 2.13022952 102.20507647 2.26043701 103.80761719 2.390625 C166.52845467 7.56851345 227.65098395 19.50082391 287.06951904 40.32415771 C288.83816314 40.94334252 290.60868791 41.55714852 292.37939453 42.17041016 C348.15982672 61.62373581 403.47388204 91.7191413 448.109375 130.5078125 C450.77418199 132.80530826 453.49413717 135.00096212 456.25 137.1875 C471.11297309 149.30287836 485.74545405 163.12429096 498.12890625 177.79296875 C499.65425033 179.59217419 501.2045763 181.35597298 502.77734375 183.11328125 C511.82274248 193.27987106 520.00403117 203.99535725 528 215 C528.59989746 215.82161621 529.19979492 216.64323242 529.81787109 217.48974609 C539.05283478 230.19570405 547.22870281 243.3562512 555 257 C555.43763672 257.75958008 555.87527344 258.51916016 556.32617188 259.30175781 C593.94943206 324.65823241 614.68285915 397.31156191 623 472 C623.12535126 473.10048676 623.12535126 473.10048676 623.25323486 474.22320557 C628.67817944 522.26027959 628.46956243 572.98148677 623 621 C622.91514343 621.76201721 622.83028687 622.52403442 622.74285889 623.30914307 C615.51272064 687.9304971 598.03412546 749.76357867 569 808 C568.57219238 808.85964355 568.14438477 809.71928711 567.70361328 810.60498047 C551.60948928 842.68470006 530.54956184 872.93141798 506.3359375 899.41796875 C505.07075909 900.81643519 503.811671 902.22103655 502.58862305 903.65649414 C497.558129 909.54123737 492.13879006 915.01350968 486.6574707 920.47290039 C485.06541034 922.05959946 483.4787701 923.65157742 481.89257812 925.24414062 C476.43433909 930.70621457 470.89769779 936.00964033 465 941 C464.03578125 941.845625 463.0715625 942.69125 462.078125 943.5625 C452.42946281 951.87847405 442.27345829 959.47643591 432 967 C431.2673291 967.53802246 430.5346582 968.07604492 429.77978516 968.63037109 C412.70197274 981.11076824 394.63826333 992.02163716 376 1002 C374.66582031 1002.71736328 374.66582031 1002.71736328 373.3046875 1003.44921875 C360.09963126 1010.52465522 346.74390886 1017.03878652 333 1023 C333 1026.34963763 333.58386191 1027.36480201 335.24609375 1030.19921875 C335.74496094 1031.06224609 336.24382812 1031.92527344 336.7578125 1032.81445312 C337.31210938 1033.76255859 337.86640625 1034.71066406 338.4375 1035.6875 C344.00248969 1045.35464651 349.30363467 1055.13164366 354.5 1065 C360.01804132 1075.468176 365.66421413 1085.83946105 371.5390625 1096.11328125 C375.24586845 1102.61186297 378.76259667 1109.18881759 382.20849609 1115.82861328 C385.35755447 1121.86190288 388.68439055 1127.7799281 392.0625 1133.6875 C397.39842201 1143.02856251 402.48265877 1152.4857782 407.5 1162 C412.37439639 1171.24227254 417.30384934 1180.43297953 422.5 1189.5 C427.69615593 1198.56702967 432.62541271 1207.75782242 437.5 1217 C442.88390595 1227.2074696 448.38159046 1237.3241655 454.1171875 1247.33984375 C458.93100094 1255.78492093 463.48424879 1264.35939074 468.03204346 1272.94934082 C472.38293201 1281.16180748 476.81843414 1289.30904328 481.4375 1297.375 C487.0416285 1307.16466808 492.33510101 1317.10234508 497.59619141 1327.0786438 C502.75289333 1336.85085351 508.05362856 1346.5204614 513.5390625 1356.11328125 C517.24586845 1362.61186297 520.76259667 1369.18881759 524.20849609 1375.82861328 C527.35755447 1381.86190288 530.68439055 1387.7799281 534.0625 1393.6875 C539.39842201 1403.02856251 544.48265877 1412.4857782 549.5 1422 C554.37439639 1431.24227254 559.30384934 1440.43297953 564.5 1449.5 C569.69615593 1458.56702967 574.62541271 1467.75782242 579.5 1477 C584.88390595 1487.2074696 590.38159046 1497.3241655 596.1171875 1507.33984375 C600.93100094 1515.78492093 605.48424879 1524.35939074 610.03204346 1532.94934082 C614.38293201 1541.16180748 618.81843414 1549.30904328 623.4375 1557.375 C629.04373277 1567.16834397 634.33842597 1577.11008518 639.60223389 1587.08972168 C644.61900392 1596.59474056 649.76982614 1606.00082984 655.1105957 1615.32885742 C660.34309485 1624.50995169 665.28669055 1633.83878852 670.23461914 1643.17504883 C674.48123034 1651.18331453 678.79677706 1659.14736255 683.25854492 1667.03833008 C686 1671.90316891 686 1671.90316891 686 1673 C665.87 1673 645.74 1673 625 1673 C622.793125 1668.854375 620.58625 1664.70875 618.3125 1660.4375 C613.52685022 1651.47603935 608.67202384 1642.56782573 603.625 1633.75 C597.93777498 1623.80269465 592.55125452 1613.70965367 587.19891357 1603.57995605 C582.74752141 1595.15571546 578.26352521 1586.75702391 573.59814453 1578.44873047 C570.22702511 1572.43934367 566.95532662 1566.37857156 563.6875 1560.3125 C559.46831489 1552.486035 555.16058178 1544.72005979 550.75 1537 C545.09092215 1527.08252027 539.73040451 1517.02153903 534.40463257 1506.92300415 C529.24766113 1497.15023829 523.94667849 1487.48007556 518.4609375 1477.88671875 C514.75413155 1471.38813703 511.23740333 1464.81118241 507.79150391 1458.17138672 C504.64244553 1452.13809712 501.31560945 1446.2200719 497.9375 1440.3125 C492.60157799 1430.97143749 487.51734123 1421.5142218 482.5 1412 C477.62560361 1402.75772746 472.69615066 1393.56702047 467.5 1384.5 C462.30384407 1375.43297033 457.37458729 1366.24217758 452.5 1357 C447.11609405 1346.7925304 441.61840954 1336.6758345 435.8828125 1326.66015625 C431.06899906 1318.21507907 426.51575121 1309.64060926 421.96795654 1301.05065918 C417.61706799 1292.83819252 413.18156586 1284.69095672 408.5625 1276.625 C402.95626723 1266.83165603 397.66157403 1256.88991482 392.39776611 1246.91027832 C387.37900482 1237.40148671 382.22648824 1227.99144932 376.8828125 1218.66015625 C372.06899906 1210.21507907 367.51575121 1201.64060926 362.96795654 1193.05065918 C358.61706799 1184.83819252 354.18156586 1176.69095672 349.5625 1168.625 C343.95589817 1158.83101135 338.66070881 1148.88866984 333.39675903 1138.90826416 C328.88777224 1130.36480222 324.30394566 1121.88264255 319.5 1113.5 C314.30383765 1104.43295913 309.37479946 1095.24207446 304.5 1086 C299.5164757 1076.55352513 294.47588413 1067.15586431 289.1875 1057.875 C288.67429199 1056.97297852 288.16108398 1056.07095703 287.63232422 1055.14160156 C286.61324681 1053.35116394 285.59404209 1051.56079876 284.57470703 1049.77050781 C281.7358419 1044.77586571 278.91682642 1039.77109302 276.125 1034.75 C275.59414795 1033.81397949 275.0632959 1032.87795898 274.51635742 1031.91357422 C274.0391626 1031.05006348 273.56196777 1030.18655273 273.0703125 1029.296875 C272.43246826 1028.15750488 272.43246826 1028.15750488 271.78173828 1026.99511719 C271 1025 271 1025 272 1022 C273.88818359 1020.87182617 273.88818359 1020.87182617 276.3984375 1019.79296875 C277.33872803 1019.37885742 278.27901855 1018.96474609 279.24780273 1018.53808594 C280.27977783 1018.09239258 281.31175293 1017.64669922 282.375 1017.1875 C312.14567839 1003.90633401 340.48084269 987.9735581 367 969 C367.80695313 968.42362793 368.61390625 967.84725586 369.4453125 967.25341797 C378.61555241 960.67218976 387.5560754 953.92379993 396.078125 946.51953125 C398.91924317 944.06963657 401.82040522 941.71786655 404.75 939.375 C408.98786525 935.93058122 412.86421539 932.28232378 416.63671875 928.3359375 C418.6309881 926.36474234 420.66268609 924.54998257 422.7890625 922.7265625 C427.02274751 919.05163545 430.87192677 915.10270547 434.6875 911 C435.37884033 910.25943359 436.07018066 909.51886719 436.7824707 908.75585938 C448.27625305 896.37814319 458.92629056 883.55773575 469 870 C469.53625 869.28473145 470.0725 868.56946289 470.625 867.83251953 C509.35040523 816.06288976 536.17385621 753.89536912 550 690.875 C550.1698642 690.1070813 550.33972839 689.3391626 550.51473999 688.54797363 C553.98618578 672.78601792 556.71251461 656.97825618 559 641 C559.14775879 639.99775391 559.29551758 638.99550781 559.44775391 637.96289062 C560.46306921 630.99050212 561.27195655 624.00779272 562 617 C562.13680176 615.74171387 562.27360352 614.48342773 562.41455078 613.18701172 C569.85357918 543.3403165 566.50603051 469.48565461 549.77539062 401.18652344 C548.97402269 397.89324436 548.21212785 394.59234182 547.453125 391.2890625 C538.36962176 352.53351581 523.87808724 315.49791202 506 280 C505.5153125 279.02949707 505.030625 278.05899414 504.53125 277.05908203 C494.54803976 257.14583916 483.00503823 238.08513129 470 220 C469.18015625 218.8555542 469.18015625 218.8555542 468.34375 217.68798828 C461.82479358 208.62074561 455.19437068 199.72045344 447.85717773 191.296875 C446.00318619 189.16708998 444.17206243 187.02127506 442.36206055 184.85400391 C435.38243878 176.52902987 428.01543934 168.70223698 420.30883789 161.0480957 C418.42811472 159.17816859 416.55843181 157.29767362 414.68945312 155.41601562 C407.76138668 148.4803764 400.68471781 142.09488639 393 136 C391.8238053 134.99391294 390.65465543 133.97946802 389.49609375 132.953125 C367.1913686 113.19904444 341.12966183 96.2578938 315 82 C313.28997803 81.05906494 313.28997803 81.05906494 311.54541016 80.09912109 C275.20051517 60.13957219 237.50859187 44.57566452 198 32 C196.9776123 31.67402832 195.95522461 31.34805664 194.90185547 31.01220703 C131.7745587 11.14370983 65.73333846 4.80952501 0 1 C0 0.67 0 0.34 0 0 Z " fill="#7C38EC" transform="translate(1044,123)"/>
<path d="M0 0 C90.44257417 -1.09534785 180.12087087 4.74581736 343 60 C344.36777588 60.62406738 344.36777588 60.62406738 345.76318359 61.26074219 C359.51413524 67.56503233 372.83856593 74.54688782 386 82 C386.9089502 82.51433594 387.81790039 83.02867187 388.75439453 83.55859375 C414.3460769 98.13826291 439.06986559 114.87998693 461.14892578 134.41992188 C462.50290629 135.5756805 463.88599031 136.69758246 465.28466797 137.79882812 C473.42526593 144.22857745 480.7013608 151.39655574 488.00732422 158.74658203 C490.1211762 160.8711568 492.24551542 162.98482061 494.37109375 165.09765625 C500.95099702 171.67101484 507.28703705 178.24640817 513.05029297 185.55541992 C514.99545337 187.99429935 517.03128779 190.30915173 519.125 192.62109375 C522.99255235 196.93100695 526.53797817 201.42268674 530 206.0625 C530.63663574 206.91537598 531.27327148 207.76825195 531.92919922 208.64697266 C566.89276954 255.98476239 592.03676148 308.18429769 610 364 C610.28504395 364.88316895 610.57008789 365.76633789 610.86376953 366.67626953 C612.37574496 371.41603406 613.74101408 376.18663947 615 381 C615.25700684 381.98162109 615.51401367 382.96324219 615.77880859 383.97460938 C623.42086617 413.56855345 628.82345302 443.59678859 632 474 C632.0751886 474.70785645 632.1503772 475.41571289 632.22784424 476.14501953 C638.84985589 539.20107099 636.21933656 603.6480709 625 666 C624.81117249 667.05350647 624.81117249 667.05350647 624.61853027 668.1282959 C621.75439657 684.01863202 618.39395199 699.73695115 613.81835938 715.22900391 C613.25461508 717.13786362 612.69910159 719.04916704 612.15039062 720.96240234 C604.4157431 747.89280589 594.14773135 773.76204089 582 799 C581.59072266 799.86093262 581.18144531 800.72186523 580.75976562 801.60888672 C571.70010936 820.60717556 561.02693512 838.72967432 549 856 C548.39575195 856.87229248 548.39575195 856.87229248 547.77929688 857.76220703 C535.70978148 875.12528564 522.2949034 891.42596082 508 907 C507.50161621 907.54881836 507.00323242 908.09763672 506.48974609 908.66308594 C461.34061822 958.33117343 402.75088194 997.12580181 341 1023 C342.47944455 1026.91348632 344.27316212 1030.550079 346.23828125 1034.2421875 C346.55499786 1034.83801636 346.87171448 1035.43384521 347.19802856 1036.04772949 C348.23310013 1037.99181689 349.27251041 1039.93353958 350.3125 1041.875 C350.85029587 1042.88207001 350.85029587 1042.88207001 351.3989563 1043.90948486 C356.46076162 1053.38447397 361.65676591 1062.76983864 366.9934082 1072.09326172 C372.05730842 1080.99129101 376.82759963 1090.03715897 381.60324097 1099.09173584 C386.11222776 1107.63519778 390.69605434 1116.11735745 395.5 1124.5 C400.69615593 1133.56702967 405.62541271 1142.75782242 410.5 1152 C415.88390595 1162.2074696 421.38159046 1172.3241655 427.1171875 1182.33984375 C431.93100094 1190.78492093 436.48424879 1199.35939074 441.03204346 1207.94934082 C445.38293201 1216.16180748 449.81843414 1224.30904328 454.4375 1232.375 C460.0416285 1242.16466808 465.33510101 1252.10234508 470.59619141 1262.0786438 C475.75289333 1271.85085351 481.05362856 1281.5204614 486.5390625 1291.11328125 C490.24586845 1297.61186297 493.76259667 1304.18881759 497.20849609 1310.82861328 C500.35755447 1316.86190288 503.68439055 1322.7799281 507.0625 1328.6875 C512.39842201 1338.02856251 517.48265877 1347.4857782 522.5 1357 C527.37439639 1366.24227254 532.30384934 1375.43297953 537.5 1384.5 C542.69615593 1393.56702967 547.62541271 1402.75782242 552.5 1412 C557.88390595 1422.2074696 563.38159046 1432.3241655 569.1171875 1442.33984375 C573.93100094 1450.78492093 578.48424879 1459.35939074 583.03204346 1467.94934082 C587.38293201 1476.16180748 591.81843414 1484.30904328 596.4375 1492.375 C602.04373277 1502.16834397 607.33842597 1512.11008518 612.60223389 1522.08972168 C617.62099518 1531.59851329 622.77351176 1541.00855068 628.1171875 1550.33984375 C632.93100094 1558.78492093 637.48424879 1567.35939074 642.03204346 1575.94934082 C646.38293201 1584.16180748 650.81843414 1592.30904328 655.4375 1600.375 C661.03900327 1610.16008215 666.33382417 1620.09155697 671.58813477 1630.06555176 C676.89282157 1640.13080888 682.33931314 1650.08830506 688.06640625 1659.921875 C688.55882812 1660.77523438 689.05125 1661.62859375 689.55859375 1662.5078125 C689.98454834 1663.23629395 690.41050293 1663.96477539 690.84936523 1664.71533203 C692 1667 692 1667 694 1673 C674.2 1673 654.4 1673 634 1673 C631.793125 1668.854375 629.58625 1664.70875 627.3125 1660.4375 C622.50480494 1651.43535762 617.62840084 1642.48532538 612.5625 1633.625 C607.17507807 1624.1972204 602.04865014 1614.64691789 596.96850586 1605.05175781 C592.61743657 1596.83892099 588.18177074 1588.69131449 583.5625 1580.625 C577.9583715 1570.83533192 572.66489899 1560.89765492 567.40380859 1550.9213562 C562.24710667 1541.14914649 556.94637144 1531.4795386 551.4609375 1521.88671875 C547.75413155 1515.38813703 544.23740333 1508.81118241 540.79150391 1502.17138672 C537.64244553 1496.13809712 534.31560945 1490.2200719 530.9375 1484.3125 C525.60157799 1474.97143749 520.51734123 1465.5142218 515.5 1456 C510.62560361 1446.75772746 505.69615066 1437.56702047 500.5 1428.5 C495.30384407 1419.43297033 490.37458729 1410.24217758 485.5 1401 C480.11609405 1390.7925304 474.61840954 1380.6758345 468.8828125 1370.66015625 C464.06899906 1362.21507907 459.51575121 1353.64060926 454.96795654 1345.05065918 C450.61706799 1336.83819252 446.18156586 1328.69095672 441.5625 1320.625 C435.95626723 1310.83165603 430.66157403 1300.88991482 425.39776611 1290.91027832 C420.86661336 1282.3253338 416.26058934 1273.80086077 411.4375 1265.375 C406.44149104 1256.64553694 401.65269652 1247.82055009 396.9375 1238.9375 C396.42472 1237.97165482 396.42472 1237.97165482 395.90158081 1236.98629761 C395.21770533 1235.69806045 394.53384189 1234.4098169 393.84999084 1233.12156677 C393.5166423 1232.49363724 393.18329376 1231.8657077 392.83984375 1231.21875 C392.34423195 1230.28501305 392.34423195 1230.28501305 391.83860779 1229.33241272 C385.74417175 1217.8608402 379.47997852 1206.48145011 373.1953125 1195.11328125 C372.86451187 1194.51483902 372.53371124 1193.91639679 372.19288635 1193.29981995 C371.85828903 1192.6945195 371.52369171 1192.08921906 371.17895508 1191.46557617 C370.6718248 1190.54813126 370.6718248 1190.54813126 370.15444946 1189.6121521 C369.46869302 1188.37169995 368.78280049 1187.13132303 368.09677124 1185.89102173 C363.27353318 1177.16822971 358.51735439 1168.41240493 353.8125 1159.625 C349.54045373 1151.64659853 345.17796172 1143.73243898 340.6875 1135.875 C335.04699092 1125.9999764 329.70857046 1115.98024765 324.40435791 1105.92245483 C319.24747631 1096.14987436 313.94657614 1086.47989657 308.4609375 1076.88671875 C304.76589811 1070.40876556 301.25425773 1063.85560492 297.82666016 1057.23291016 C293.82832252 1049.55734068 289.53605963 1042.05224982 285.20117188 1034.5625 C284.66943359 1033.63566406 284.13769531 1032.70882813 283.58984375 1031.75390625 C283.11409912 1030.93220947 282.63835449 1030.1105127 282.14819336 1029.26391602 C281.07964538 1027.1570384 280.45822875 1025.30768633 280 1023 C280.78117187 1022.64550781 281.56234375 1022.29101562 282.3671875 1021.92578125 C333.56430252 998.37966933 386.91469154 968.86946675 426.31225586 927.68505859 C428.04335251 925.95671647 429.85008726 924.38340634 431.71484375 922.80078125 C435.97074804 919.09802776 439.84806671 915.12836107 443.6875 911 C444.37884033 910.25943359 445.07018066 909.51886719 445.7824707 908.75585938 C457.27625305 896.37814319 467.92629056 883.55773575 478 870 C478.53625 869.28473145 479.0725 868.56946289 479.625 867.83251953 C505.85860605 832.76241336 526.03924886 793.09227234 541 752 C541.4223291 750.8454834 541.8446582 749.6909668 542.27978516 748.50146484 C560.62512116 697.68002116 569.94541291 643.82565316 573 590 C573.05784668 589.08041504 573.11569336 588.16083008 573.17529297 587.21337891 C578.13230025 507.94539001 570.02384351 426.0670086 515 280 C514.27731934 278.55512207 514.27731934 278.55512207 513.54003906 277.08105469 C503.55452869 257.15964258 492.00997277 238.09199339 479 220 C478.18015625 218.8555542 478.18015625 218.8555542 477.34375 217.68798828 C470.82479358 208.62074561 464.19437068 199.72045344 456.85717773 191.296875 C455.00318619 189.16708998 453.17206243 187.02127506 451.36206055 184.85400391 C444.38243878 176.52902987 437.01543934 168.70223698 429.30883789 161.0480957 C427.42811472 159.17816859 425.55843181 157.29767362 423.68945312 155.41601562 C416.76138668 148.4803764 409.68471781 142.09488639 402 136 C400.8238053 134.99391294 399.65465543 133.97946802 398.49609375 132.953125 C376.1616128 113.17269135 350.10890176 96.35989597 324 82 C323.05962891 81.47519043 322.11925781 80.95038086 321.15039062 80.40966797 C294.04687936 65.30429103 266.18040028 52.5201696 237 42 C236.34684814 41.76452454 235.69369629 41.52904907 235.02075195 41.28643799 C189.33234121 24.89343621 142.04139751 14.50702664 94 8 C93.26084351 7.89945313 92.52168701 7.79890625 91.76013184 7.6953125 C61.32135036 3.59558325 30.65873733 2.39247964 0 1 C0 0.67 0 0.34 0 0 Z " fill="#9B31B9" transform="translate(975,123)"/>
<path d="M0 0 C19.8 0 39.6 0 60 0 C60 552.09 60 1104.18 60 1673 C40.2 1673 20.4 1673 0 1673 C0 1120.91 0 568.82 0 0 Z " fill="#FB923B" transform="translate(290,123)"/>
<path d="M0 0 C15.54202858 -0.2337434 31.08392551 -0.41001111 46.62729836 -0.51812172 C53.84474105 -0.56965783 61.06109091 -0.6398961 68.27783203 -0.75439453 C74.56906692 -0.85416148 80.85951045 -0.91860267 87.15151441 -0.94088495 C90.48284047 -0.95390964 93.81137853 -0.98970037 97.14210892 -1.05730057 C100.86384905 -1.12983745 104.58089024 -1.13989454 108.30322266 -1.13525391 C109.40373962 -1.17120667 110.50425659 -1.20715942 111.63812256 -1.24420166 C114.73524718 -1.20237719 117.09211627 -1.07507693 120 0 C122.75251812 3.03244106 124.37652447 6.26608951 126 10 C126.78818115 11.43424316 126.78818115 11.43424316 127.59228516 12.89746094 C128.18468994 14.0542334 128.18468994 14.0542334 128.7890625 15.234375 C129.24877441 16.12552002 129.70848633 17.01666504 130.18212891 17.93481445 C130.65827637 18.86382568 131.13442383 19.79283691 131.625 20.75 C135.53923205 28.32006885 139.51786103 35.84536052 143.625 43.3125 C148.78191981 52.70080504 153.81032638 62.1537089 158.8125 71.625 C166.81817926 86.78088722 174.89179151 101.89865224 183 117 C191.22610377 132.32817095 199.42562667 147.66970982 207.58044434 163.03588867 C215.01549814 177.0444488 222.50155327 191.02525902 230 205 C232.45907307 209.58293702 234.91752494 214.16620588 237.375 218.75 C237.98657959 219.89065918 238.59815918 221.03131836 239.22827148 222.20654297 C242.59850632 228.49817397 245.95705484 234.79580127 249.30078125 241.1015625 C249.66238846 241.7834816 250.02399567 242.4654007 250.39656067 243.16798401 C251.85768152 245.92364391 253.31873509 248.67933946 254.77957153 251.43515015 C259.70504542 260.72350754 264.69441569 269.97313974 269.75463867 279.18896484 C273.78130932 286.5450232 277.65457637 293.97627788 281.5144043 301.42089844 C284.8096321 307.76078665 288.18399 314.05067228 291.625 320.3125 C296.78153055 329.7010251 301.81032224 339.15370106 306.8125 348.625 C314.81817926 363.78088722 322.89179151 378.89865224 331 394 C339.2505723 409.37376455 347.47325372 424.76148227 355.64984131 440.17468262 C360.40300269 449.13292394 365.18254235 458.07610756 370 467 C375.18488017 476.60450849 380.32256437 486.23313818 385.4375 495.875 C392.63986721 509.45101102 399.88264462 523.00467381 407.1484375 536.546875 C409.03851086 540.07182195 410.92595395 543.59816465 412.8125 547.125 C413.76789499 548.91066622 414.72335299 550.69629869 415.67886353 552.48190308 C416.61369173 554.22886761 417.5484236 555.97588369 418.4831543 557.72290039 C421.58308396 563.51044974 424.69523992 569.29096141 427.83203125 575.05859375 C428.43901855 576.17524414 429.04600586 577.29189453 429.67138672 578.44238281 C430.82599401 580.56389789 431.98249128 582.68438574 433.14111328 584.80371094 C433.65013184 585.73860352 434.15915039 586.67349609 434.68359375 587.63671875 C435.13275146 588.45873779 435.58190918 589.28075684 436.04467773 590.12768555 C437 592 437 592 437 593 C397.07 593 357.14 593 316 593 C310.39 582.44 304.78 571.88 299 561 C294.00453237 551.66420804 289.00622148 542.33001874 284 533 C275.75055141 517.62562829 267.5267493 502.23852344 259.35015869 486.82531738 C254.59699731 477.86707606 249.81745765 468.92389244 245 460 C239.81511983 450.39549151 234.67743563 440.76686182 229.5625 431.125 C221.74803962 416.39523171 213.88375079 401.69282628 206 387 C197.75055141 371.62562829 189.5267493 356.23852344 181.35015869 340.82531738 C176.0406526 330.81853809 170.69009996 320.83485971 165.30834961 310.86669922 C160.2994729 301.57927326 155.35046067 292.26067215 150.40673828 282.93847656 C145.6351193 273.94227598 140.83788717 264.96080877 136 256 C130.81507383 246.39551661 125.67743544 236.76686146 120.5625 227.125 C112.74803962 212.39523171 104.88375079 197.69282628 97 183 C94.54092693 178.41706298 92.08247506 173.83379412 89.625 169.25 C89.01342041 168.10934082 88.40184082 166.96868164 87.77172852 165.79345703 C84.40149368 159.50182603 81.04294516 153.20419873 77.69921875 146.8984375 C77.33761154 146.2165184 76.97600433 145.5345993 76.60343933 144.83201599 C75.14231848 142.07635609 73.68126491 139.32066054 72.22042847 136.56484985 C67.29495458 127.27649246 62.30558431 118.02686026 57.24536133 108.81103516 C53.21869068 101.4549768 49.34542363 94.02372212 45.4855957 86.57910156 C41.72704135 79.34779136 37.84906731 72.18936167 33.92407227 65.04736328 C28.76873414 55.63657598 23.76957401 46.14438212 18.76586914 36.6524353 C13.61938668 26.89198161 8.42269187 17.16675768 2.99584961 7.55810547 C0 2.20781843 0 2.20781843 0 0 Z " fill="#FA913B" transform="translate(902,1203)"/>
<path d="M0 0 C16.01555824 -0.04733805 32.03109671 -0.0822841 48.04670811 -0.10362434 C55.48795016 -0.11380926 62.92914758 -0.12767442 70.37036133 -0.15087891 C127.81960827 -0.32623562 127.81960827 -0.32623562 150.65234375 0.8984375 C151.40465334 0.93856838 152.15696293 0.97869926 152.93206978 1.02004623 C212.97485054 4.35724338 277.80752232 18.64974254 327 55 C327.57186035 55.41926758 328.1437207 55.83853516 328.73291016 56.27050781 C351.45600954 73.09634663 369.99087397 93.5906889 383.95898438 118.16894531 C384.95431381 119.91964202 385.96890522 121.65934556 386.984375 123.3984375 C397.01012305 141.24426903 403.79481804 160.50689889 408.39599609 180.40283203 C408.95246764 182.7956147 409.54243143 185.17696613 410.14453125 187.55859375 C415.60541477 209.73661668 416.54840117 232.25277425 416.4375 255 C416.43512329 256.2876123 416.43274658 257.57522461 416.43029785 258.90185547 C416.37264873 278.89928294 415.4829354 298.29367063 412 318 C411.7836792 319.35303223 411.7836792 319.35303223 411.56298828 320.73339844 C408.29386485 341.09310292 401.09072668 361.5193826 392 380 C391.67064453 380.67643555 391.34128906 381.35287109 391.00195312 382.04980469 C382.09861422 400.13004878 370.49121438 415.8748038 356.9375 430.75 C356.46707275 431.26908936 355.99664551 431.78817871 355.51196289 432.32299805 C343.40136216 445.40660498 328.30413287 456.31774324 312.79003906 464.99560547 C311.07532506 465.95773496 309.37703359 466.94895801 307.6796875 467.94140625 C291.96272279 476.80233738 274.76769173 483.34808694 257.625 488.875 C256.85663818 489.12451416 256.08827637 489.37402832 255.29663086 489.63110352 C239.91735833 494.38246192 224.05706494 497.61495062 208.18652344 500.203125 C205.68351621 500.61536256 203.18591362 501.05309032 200.6875 501.4921875 C162.44550974 507.97419489 123.7167141 507.39987557 85.07279372 507.21608305 C77.73719282 507.18181079 70.40158077 507.16587146 63.06591904 507.15097082 C48.04385674 507.12007175 33.02194513 507.06772089 18 507 C18 506.67 18 506.34 18 506 C19.28648437 505.90501221 20.57296875 505.81002441 21.8984375 505.7121582 C78.84317122 501.45860483 134.87446987 494.18066159 186 467 C186.95302002 466.5064502 186.95302002 466.5064502 187.92529297 466.00292969 C233.98366091 442.07800581 266.30239807 399.94439217 282.25146484 351.05517578 C287.30786088 334.99926032 290.87705466 318.69468093 293 302 C293.10441406 301.2172168 293.20882813 300.43443359 293.31640625 299.62792969 C302.25086698 229.65074516 290.7439059 151.90062585 247 95 C201.90054657 37.13266477 128.82973044 13.5649816 58.53515625 4.84375 C39.10408287 2.57750173 19.54119658 1.70403257 0 1 C0 0.67 0 0.34 0 0 Z " fill="#E84245" transform="translate(889,412)"/>
<path d="M0 0 C39.6 0 79.2 0 120 0 C120 167.31 120 334.62 120 507 C80.4 507 40.8 507 0 507 C0 339.69 0 172.38 0 0 Z " fill="#9B31B9" transform="translate(644,412)"/>
<path d="M0 0 C7.71862539 -0.23213673 15.43688753 -0.40959518 23.15821266 -0.51812172 C26.74426523 -0.57022592 30.32792354 -0.64081948 33.91259766 -0.75439453 C37.37524069 -0.86341107 40.83558913 -0.92290715 44.29981613 -0.94877243 C46.25807289 -0.97612957 48.21541046 -1.05414931 50.17227173 -1.13296509 C53.71651877 -1.13519445 56.60918634 -1.0375048 60 0 C62.93527393 2.97117745 64.43429764 6.16468688 66 10 C66.78818115 11.43424316 66.78818115 11.43424316 67.59228516 12.89746094 C67.98722168 13.66864258 68.3821582 14.43982422 68.7890625 15.234375 C69.24877441 16.12552002 69.70848633 17.01666504 70.18212891 17.93481445 C70.8963501 19.3283313 70.8963501 19.3283313 71.625 20.75 C75.53923205 28.32006885 79.51786103 35.84536052 83.625 43.3125 C88.78191981 52.70080504 93.81032638 62.1537089 98.8125 71.625 C106.81817926 86.78088722 114.89179151 101.89865224 123 117 C131.22610377 132.32817095 139.42562667 147.66970982 147.58044434 163.03588867 C155.01549814 177.0444488 162.50155327 191.02525902 170 205 C172.45907307 209.58293702 174.91752494 214.16620588 177.375 218.75 C177.98657959 219.89065918 178.59815918 221.03131836 179.22827148 222.20654297 C182.59850632 228.49817397 185.95705484 234.79580127 189.30078125 241.1015625 C189.66238846 241.7834816 190.02399567 242.4654007 190.39656067 243.16798401 C191.85768152 245.92364391 193.31873509 248.67933946 194.77957153 251.43515015 C199.70504542 260.72350754 204.69441569 269.97313974 209.75463867 279.18896484 C213.78130932 286.5450232 217.65457637 293.97627788 221.5144043 301.42089844 C224.8096321 307.76078665 228.18399 314.05067228 231.625 320.3125 C236.78153055 329.7010251 241.81032224 339.15370106 246.8125 348.625 C254.81817926 363.78088722 262.89179151 378.89865224 271 394 C279.2505723 409.37376455 287.47325372 424.76148227 295.64984131 440.17468262 C300.40300269 449.13292394 305.18254235 458.07610756 310 467 C315.18488017 476.60450849 320.32256437 486.23313818 325.4375 495.875 C332.63986721 509.45101102 339.88264462 523.00467381 347.1484375 536.546875 C349.03851086 540.07182195 350.92595395 543.59816465 352.8125 547.125 C353.76789499 548.91066622 354.72335299 550.69629869 355.67886353 552.48190308 C356.61369173 554.22886761 357.5484236 555.97588369 358.4831543 557.72290039 C361.58308396 563.51044974 364.69523992 569.29096141 367.83203125 575.05859375 C368.43901855 576.17524414 369.04600586 577.29189453 369.67138672 578.44238281 C370.82599401 580.56389789 371.98249128 582.68438574 373.14111328 584.80371094 C373.65013184 585.73860352 374.15915039 586.67349609 374.68359375 587.63671875 C375.13275146 588.45873779 375.58190918 589.28075684 376.04467773 590.12768555 C377 592 377 592 377 593 C357.2 593 337.4 593 317 593 C307.8259125 576.94534687 307.8259125 576.94534687 304.703125 570.96875 C304.34745453 570.29354813 303.99178406 569.61834625 303.62533569 568.92268372 C302.87922718 567.50607053 302.13409977 566.08894017 301.38995361 564.67129517 C299.42448222 560.9276178 297.45093624 557.18820705 295.4765625 553.44921875 C294.89429398 552.34636787 294.89429398 552.34636787 294.30026245 551.22123718 C291.12813035 545.2223938 287.89441331 539.25889744 284.625 533.3125 C280.12662339 525.12748391 275.78415266 516.86995016 271.48535156 508.57861328 C268.19019123 502.23889542 264.81592228 495.94916809 261.375 489.6875 C256.21846945 480.2989749 251.18967776 470.84629894 246.1875 461.375 C238.18182074 446.21911278 230.10820849 431.10134776 222 416 C219.54059133 411.41724276 217.08231206 406.83388179 214.625 402.25 C213.70750977 400.53876953 213.70750977 400.53876953 212.77148438 398.79296875 C209.40131111 392.50151107 206.04285995 386.20403804 202.69921875 379.8984375 C202.33761154 379.2165184 201.97600433 378.5345993 201.60343933 377.83201599 C200.14231848 375.07635609 198.68126491 372.32066054 197.22042847 369.56484985 C192.29495458 360.27649246 187.30558431 351.02686026 182.24536133 341.81103516 C178.21869068 334.4549768 174.34542363 327.02372212 170.4855957 319.57910156 C167.1903679 313.23921335 163.81601 306.94932772 160.375 300.6875 C155.21846945 291.2989749 150.18967776 281.84629894 145.1875 272.375 C137.18182074 257.21911278 129.10820849 242.10134776 121 227 C112.7494277 211.62623545 104.52674628 196.23851773 96.35015869 180.82531738 C91.59699731 171.86707606 86.81745765 162.92389244 82 154 C76.81511983 144.39549151 71.67743563 134.76686182 66.5625 125.125 C58.74803962 110.39523171 50.88375079 95.69282628 43 81 C40.54092693 76.41706298 38.08249321 71.83378439 35.625 67.25 C34.70871826 65.54118652 34.70871826 65.54118652 33.77392578 63.79785156 C30.39037207 57.48176719 27.0194837 51.15920196 23.6640625 44.828125 C23.29918228 44.13975052 22.93430206 43.45137604 22.55836487 42.74214172 C19.58207467 37.12681207 19.58207467 37.12681207 18.16513062 34.45223999 C13.21322232 25.10903008 8.20147124 15.80331024 3.04589844 6.5703125 C0 1.09875382 0 1.09875382 0 0 Z " fill="#E84245" transform="translate(962,1203)"/>
<path d="M0 0 C19.8 0 39.6 0 60 0 C60 195.69 60 391.38 60 593 C40.2 593 20.4 593 0 593 C0 397.31 0 201.62 0 0 Z " fill="#7C39ED" transform="translate(704,1203)"/>
<path d="M0 0 C19.8 0 39.6 0 60 0 C60 195.69 60 391.38 60 593 C40.2 593 20.4 593 0 593 C0 397.31 0 201.62 0 0 Z " fill="#9C31B9" transform="translate(644,1203)"/>
<path d="M0 0 C87.01928801 -0.7917754 87.01928801 -0.7917754 122.11035156 6.41992188 C125.29297131 7.05881209 128.48434457 7.63139366 131.6796875 8.203125 C178.27155538 16.82626955 227.39370534 35.80758119 262 69 C263.28742765 70.08836755 264.57905184 71.17179211 265.875 72.25 C294.88758667 97.7740993 314.72156064 135.90778692 324 173 C324.32774414 174.3005835 324.32774414 174.3005835 324.66210938 175.62744141 C326.32494261 182.3799585 327.69684827 189.17017632 329 196 C329.19899902 196.96663574 329.39799805 197.93327148 329.60302734 198.92919922 C333.26910197 217.21153207 333.37187611 235.41758702 333.375 254 C333.37690338 255.22434753 333.37880676 256.44869507 333.38076782 257.71014404 C333.37809583 272.91478079 332.84355026 287.90234438 331 303 C330.86480957 304.12937988 330.72961914 305.25875977 330.59033203 306.42236328 C324.92684012 349.62380027 307.76939714 393.63595407 277.39453125 425.48828125 C275.43731032 427.54128787 273.60787289 429.62030615 271.8125 431.8125 C268.55605123 435.63768067 264.87342649 438.8126877 261 442 C260.02417969 442.81339844 259.04835938 443.62679688 258.04296875 444.46484375 C248.58794452 452.20257008 238.48311712 458.7454635 228 465 C227.38108887 465.3722168 226.76217773 465.74443359 226.12451172 466.12792969 C199.02258971 482.18775872 167.64887192 490.88388338 137 497 C135.30109619 497.34442139 135.30109619 497.34442139 133.56787109 497.69580078 C91.29334987 506.11220254 48.87538723 505.39011669 6 505 C6 504.67 6 504.34 6 504 C7.42989258 503.90295776 7.42989258 503.90295776 8.88867188 503.80395508 C62.36907122 500.10806257 115.15450247 491.43684679 163 466 C163.95302002 465.5064502 163.95302002 465.5064502 164.92529297 465.00292969 C210.98366091 441.07800581 243.30239807 398.94439217 259.25146484 350.05517578 C264.30786088 333.99926032 267.87705466 317.69468093 270 301 C270.10441406 300.2172168 270.20882813 299.43443359 270.31640625 298.62792969 C279.25086698 228.65074516 267.7439059 150.90062585 224 94 C178.90510776 36.13851727 105.89802751 12.62550174 35.625 3.84765625 C23.78533189 2.46421677 11.89865157 1.68245938 0 1 C0 0.67 0 0.34 0 0 Z " fill="#FA913B" transform="translate(912,413)"/>
<path d="M0 0 C19.8 0 39.6 0 60 0 C60 166.98 60 333.96 60 506 C40.2 506 20.4 506 0 506 C0 339.02 0 172.04 0 0 Z " fill="#7C39EC" transform="translate(704,413)"/>
</svg>
